<svg version="1.1" xmlns="http://www.w3.org/2000/svg" xmlns:xlink="http://www.w3.org/1999/xlink" width="633" height="105"><defs></defs><g><g transform="translate(-30,-18) scale(1,1)"><g><path fill="none" stroke="none"></path><text fill="#000000" stroke="none" font-family="Arial" font-size="16px" font-style="normal" font-weight="normal" text-decoration="none" x="45" y="49">Basic states of a node</text></g></g><g transform="translate(-30,-18) scale(1,1)"><path fill="#C0C0C0" stroke="none" d="M 51 100.5 C 51 95.2532944 55.2532944 91 60.5 91 C 65.7467056 91 70 95.2532944 70 100.5 C 70 105.7467056 65.7467056 110 60.5 110 C 55.2532944 110 51 105.7467056 51 100.5 Z" opacity="0.2"></path></g><g transform="translate(-30,-18) scale(1,1)"><path fill="#000000" stroke="none" d="M 44 93.5 C 44 88.2532944 48.2532944 84 53.5 84 C 58.7467056 84 63 88.2532944 63 93.5 C 63 98.7467056 58.7467056 103 53.5 103 C 48.2532944 103 44 98.7467056 44 93.5 Z"></path></g><g transform="translate(-30,-18) scale(1,1)"><path fill="#C0C0C0" stroke="none" d="M 145 81 L 235 81 Q 245 81 245 91 L 245 110 Q 245 120 235 120 L 145 120 Q 135 120 135 110 L 135 91 Q 135 81 145 81 Z" opacity="0.2"></path></g><g transform="translate(-30,-18) scale(1,1)"><path fill="#ffffff" stroke="none" d="M 138 74 L 228 74 Q 238 74 238 84 L 238 103 Q 238 113 228 113 L 138 113 Q 128 113 128 103 L 128 84 Q 128 74 138 74 Z"></path></g><g transform="translate(-30,-18) scale(1,1)"><path fill="none" stroke="#000000" d="M 138 74 L 228 74 Q 238 74 238 84 L 238 103 Q 238 113 228 113 L 138 113 Q 128 113 128 103 L 128 84 Q 128 74 138 74 Z" stroke-miterlimit="10"></path></g><g transform="translate(-30,-18) scale(1,1)"><g><path fill="none" stroke="none"></path><text fill="#000000" stroke="none" font-family="Arial" font-size="13px" font-style="normal" font-weight="bold" text-decoration="none" x="132.5" y="93.5">DISCONNECTED</text></g></g><g transform="translate(-30,-18) scale(1,1)"><path fill="#C0C0C0" stroke="none" d="M 341 81 L 411 81 Q 421 81 421 91 L 421 110 Q 421 120 411 120 L 341 120 Q 331 120 331 110 L 331 91 Q 331 81 341 81 Z" opacity="0.2"></path></g><g transform="translate(-30,-18) scale(1,1)"><path fill="#ffffff" stroke="none" d="M 334 74 L 404 74 Q 414 74 414 84 L 414 103 Q 414 113 404 113 L 334 113 Q 324 113 324 103 L 324 84 Q 324 74 334 74 Z"></path></g><g transform="translate(-30,-18) scale(1,1)"><path fill="none" stroke="#000000" d="M 334 74 L 404 74 Q 414 74 414 84 L 414 103 Q 414 113 404 113 L 334 113 Q 324 113 324 103 L 324 84 Q 324 74 334 74 Z" stroke-miterlimit="10"></path></g><g transform="translate(-30,-18) scale(1,1)"><g><path fill="none" stroke="none"></path><text fill="#000000" stroke="none" font-family="Arial" font-size="13px" font-style="normal" font-weight="bold" text-decoration="none" x="328" y="93.5">ANNOUNCED</text></g></g><g transform="translate(-30,-18) scale(1,1)"><path fill="#C0C0C0" stroke="none" d="M 525 81 L 564 81 Q 574 81 574 91 L 574 110 Q 574 120 564 120 L 525 120 Q 515 120 515 110 L 515 91 Q 515 81 525 81 Z" opacity="0.2"></path></g><g transform="translate(-30,-18) scale(1,1)"><path fill="#ffffff" stroke="none" d="M 518 74 L 557 74 Q 567 74 567 84 L 567 103 Q 567 113 557 113 L 518 113 Q 508 113 508 103 L 508 84 Q 508 74 518 74 Z"></path></g><g transform="translate(-30,-18) scale(1,1)"><path fill="none" stroke="#000000" d="M 518 74 L 557 74 Q 567 74 567 84 L 567 103 Q 567 113 557 113 L 518 113 Q 508 113 508 103 L 508 84 Q 508 74 518 74 Z" stroke-miterlimit="10"></path></g><g transform="translate(-30,-18) scale(1,1)"><g><path fill="none" stroke="none"></path><text fill="#000000" stroke="none" font-family="Arial" font-size="13px" font-style="normal" font-weight="bold" text-decoration="none" x="514.5" y="93.5">JOINED</text></g></g><g transform="translate(-30,-18) scale(1,1)"><path fill="#C0C0C0" stroke="none" d="M 635 100.5 C 635 93.59644 640.59644 88 647.5 88 C 654.40356 88 660 93.59644 660 100.5 C 660 107.40356 654.40356 113 647.5 113 C 640.59644 113 635 107.40356 635 100.5 Z" opacity="0.2"></path></g><g transform="translate(-30,-18) scale(1,1)"><path fill="none" stroke="#000000" d="M 628 93.5 C 628 86.59644 633.59644 81 640.5 81 C 647.40356 81 653 86.59644 653 93.5 C 653 100.40356 647.40356 106 640.5 106 C 633.59644 106 628 100.40356 628 93.5 Z" stroke-miterlimit="10"></path></g><g transform="translate(-30,-18) scale(1,1)"><path fill="#000000" stroke="none" d="M 633 93.5 C 633 89.357864 636.357864 86 640.5 86 C 644.642136 86 648 89.357864 648 93.5 C 648 97.642136 644.642136 101 640.5 101 C 636.357864 101 633 97.642136 633 93.5 Z"></path></g><g transform="translate(-30,-18) scale(1,1)"><path fill="none" stroke="#000000" d="M 64 93 L 127 93" stroke-miterlimit="10"></path></g><g transform="translate(-30,-18) scale(1,1)"><path fill="none" stroke="#000000" d="M 116.83732514237585 97.20951775601598 L 127 93 L 116.83732514237585 88.79048224398402" stroke-miterlimit="10"></path></g><g transform="translate(-30,-18) scale(1,1)"><g><path fill="none" stroke="none"></path><text fill="#000000" stroke="none" font-family="Arial" font-size="13px" font-style="normal" font-weight="normal" text-decoration="none" x="77" y="85">create</text></g></g><g transform="translate(-30,-18) scale(1,1)"><path fill="none" stroke="#000000" d="M 239 93 L 323 93" stroke-miterlimit="10"></path></g><g transform="translate(-30,-18) scale(1,1)"><path fill="none" stroke="#000000" d="M 312.83732514237585 97.20951775601598 L 323 93 L 312.83732514237585 88.79048224398402" stroke-miterlimit="10"></path></g><g transform="translate(-30,-18) scale(1,1)"><g><path fill="none" stroke="none"></path><text fill="#000000" stroke="none" font-family="Arial" font-size="13px" font-style="normal" font-weight="normal" text-decoration="none" x="253" y="85">announce</text></g></g><g transform="translate(-30,-18) scale(1,1)"><path fill="none" stroke="#000000" d="M 415 93 L 507 93" stroke-miterlimit="10"></path></g><g transform="translate(-30,-18) scale(1,1)"><path fill="none" stroke="#000000" d="M 496.83732514237585 97.20951775601598 L 507 93 L 496.83732514237585 88.79048224398402" stroke-miterlimit="10"></path></g><g transform="translate(-30,-18) scale(1,1)"><g><path fill="none" stroke="none"></path><text fill="#000000" stroke="none" font-family="Arial" font-size="13px" font-style="normal" font-weight="normal" text-decoration="none" x="426" y="85">finish joining</text></g></g><g transform="translate(-30,-18) scale(1,1)"><path fill="none" stroke="#000000" d="M 568 93 L 627 93" stroke-miterlimit="10"></path></g><g transform="translate(-30,-18) scale(1,1)"><path fill="none" stroke="#000000" d="M 616.8373251423759 97.20951775601598 L 627 93 L 616.8373251423758 88.79048224398402" stroke-miterlimit="10"></path></g><g transform="translate(-30,-18) scale(1,1)"><g><path fill="none" stroke="none"></path><text fill="#000000" stroke="none" font-family="Arial" font-size="13px" font-style="normal" font-weight="normal" text-decoration="none" x="576" y="85">destroy</text></g></g></g></svg>