<svg version="1.1" xmlns="http://www.w3.org/2000/svg" xmlns:xlink="http://www.w3.org/1999/xlink" width="688" height="256"><defs></defs><g><g transform="translate(-22,-10) scale(1,1)"><path fill="none" stroke="#000000" d="M 32 20 L 700 20 L 700 256 L 32 256 L 32 20" stroke-miterlimit="10"></path></g><g transform="translate(-22,-10) scale(1,1)"><path fill="#ffffff" stroke="none" d="M 32 20 L 32 42 L 292 42 L 303 31 L 303 20 L 32 20"></path></g><g transform="translate(-22,-10) scale(1,1)"><path fill="none" stroke="#000000" d="M 32 20 L 32 42 L 292 42 L 303 31 L 303 20 L 32 20 L 32 20" stroke-miterlimit="10"></path></g><g transform="translate(-22,-10) scale(1,1)"><g><path fill="none" stroke="none"></path><text fill="#000000" stroke="none" font-family="Arial" font-size="13px" font-style="normal" font-weight="normal" text-decoration="none" x="125" y="37.5">conceptual capability states</text></g></g><g transform="translate(-22,-10) scale(1,1)"><g><path fill="none" stroke="none"></path><text fill="#000000" stroke="none" font-family="Arial" font-size="13px" font-style="normal" font-weight="bold" text-decoration="none" x="37" y="37.5">state machine</text></g></g><g transform="translate(-22,-10) scale(1,1)"><path fill="#C0C0C0" stroke="none" d="M 67 142.5 C 67 137.2532944 71.2532944 133 76.5 133 C 81.7467056 133 86 137.2532944 86 142.5 C 86 147.7467056 81.7467056 152 76.5 152 C 71.2532944 152 67 147.7467056 67 142.5 Z" opacity="0.2"></path></g><g transform="translate(-22,-10) scale(1,1)"><path fill="#000000" stroke="none" d="M 60 135.5 C 60 130.2532944 64.2532944 126 69.5 126 C 74.7467056 126 79 130.2532944 79 135.5 C 79 140.7467056 74.7467056 145 69.5 145 C 64.2532944 145 60 140.7467056 60 135.5 Z"></path></g><g transform="translate(-22,-10) scale(1,1)"><path fill="#C0C0C0" stroke="none" d="M 325 123 L 364 123 Q 374 123 374 133 L 374 152 Q 374 162 364 162 L 325 162 Q 315 162 315 152 L 315 133 Q 315 123 325 123 Z" opacity="0.2"></path></g><g transform="translate(-22,-10) scale(1,1)"><path fill="#ffffff" stroke="none" d="M 318 116 L 357 116 Q 367 116 367 126 L 367 145 Q 367 155 357 155 L 318 155 Q 308 155 308 145 L 308 126 Q 308 116 318 116 Z"></path></g><g transform="translate(-22,-10) scale(1,1)"><path fill="none" stroke="#000000" d="M 318 116 L 357 116 Q 367 116 367 126 L 367 145 Q 367 155 357 155 L 318 155 Q 308 155 308 145 L 308 126 Q 308 116 318 116 Z" stroke-miterlimit="10"></path></g><g transform="translate(-22,-10) scale(1,1)"><g><path fill="none" stroke="none"></path><text fill="#000000" stroke="none" font-family="Arial" font-size="13px" font-style="normal" font-weight="bold" text-decoration="none" x="319" y="135.5">Bound</text></g></g><g transform="translate(-22,-10) scale(1,1)"><path fill="#C0C0C0" stroke="none" d="M 593 55 L 640 55 Q 650 55 650 65 L 650 84 Q 650 94 640 94 L 593 94 Q 583 94 583 84 L 583 65 Q 583 55 593 55 Z" opacity="0.2"></path></g><g transform="translate(-22,-10) scale(1,1)"><path fill="#ffffff" stroke="none" d="M 586 48 L 633 48 Q 643 48 643 58 L 643 77 Q 643 87 633 87 L 586 87 Q 576 87 576 77 L 576 58 Q 576 48 586 48 Z"></path></g><g transform="translate(-22,-10) scale(1,1)"><path fill="none" stroke="#000000" d="M 586 48 L 633 48 Q 643 48 643 58 L 643 77 Q 643 87 633 87 L 586 87 Q 576 87 576 77 L 576 58 Q 576 48 586 48 Z" stroke-miterlimit="10"></path></g><g transform="translate(-22,-10) scale(1,1)"><g><path fill="none" stroke="none"></path><text fill="#000000" stroke="none" font-family="Arial" font-size="13px" font-style="normal" font-weight="bold" text-decoration="none" x="583.5" y="67.5">Resolved</text></g></g><g transform="translate(-22,-10) scale(1,1)"><path fill="#C0C0C0" stroke="none" d="M 181 123 L 220 123 Q 230 123 230 133 L 230 152 Q 230 162 220 162 L 181 162 Q 171 162 171 152 L 171 133 Q 171 123 181 123 Z" opacity="0.2"></path></g><g transform="translate(-22,-10) scale(1,1)"><path fill="#ffffff" stroke="none" d="M 174 116 L 213 116 Q 223 116 223 126 L 223 145 Q 223 155 213 155 L 174 155 Q 164 155 164 145 L 164 126 Q 164 116 174 116 Z"></path></g><g transform="translate(-22,-10) scale(1,1)"><path fill="none" stroke="#000000" d="M 174 116 L 213 116 Q 223 116 223 126 L 223 145 Q 223 155 213 155 L 174 155 Q 164 155 164 145 L 164 126 Q 164 116 174 116 Z" stroke-miterlimit="10"></path></g><g transform="translate(-22,-10) scale(1,1)"><g><path fill="none" stroke="none"></path><text fill="#000000" stroke="none" font-family="Arial" font-size="13px" font-style="normal" font-weight="bold" text-decoration="none" x="171" y="135.5">Created</text></g></g><g transform="translate(-22,-10) scale(1,1)"><path fill="#C0C0C0" stroke="none" d="M 593 183 L 632 183 Q 642 183 642 193 L 642 212 Q 642 222 632 222 L 593 222 Q 583 222 583 212 L 583 193 Q 583 183 593 183 Z" opacity="0.2"></path></g><g transform="translate(-22,-10) scale(1,1)"><path fill="#ffffff" stroke="none" d="M 586 176 L 625 176 Q 635 176 635 186 L 635 205 Q 635 215 625 215 L 586 215 Q 576 215 576 205 L 576 186 Q 576 176 586 176 Z"></path></g><g transform="translate(-22,-10) scale(1,1)"><path fill="none" stroke="#000000" d="M 586 176 L 625 176 Q 635 176 635 186 L 635 205 Q 635 215 625 215 L 586 215 Q 576 215 576 205 L 576 186 Q 576 176 586 176 Z" stroke-miterlimit="10"></path></g><g transform="translate(-22,-10) scale(1,1)"><g><path fill="none" stroke="none"></path><text fill="#000000" stroke="none" font-family="Arial" font-size="13px" font-style="normal" font-weight="bold" text-decoration="none" x="591.5" y="195.5">Error</text></g></g><g transform="translate(-22,-10) scale(1,1)"><path fill="none" stroke="#000000" d="M 80 135 L 163 135" stroke-miterlimit="10"></path></g><g transform="translate(-22,-10) scale(1,1)"><path fill="none" stroke="#000000" d="M 152.83732514237585 139.209517756016 L 163 135 L 152.83732514237585 130.790482243984" stroke-miterlimit="10"></path></g><g transform="translate(-22,-10) scale(1,1)"><g><path fill="none" stroke="none"></path><text fill="#000000" stroke="none" font-family="Arial" font-size="13px" font-style="normal" font-weight="normal" text-decoration="none" x="103" y="127">create</text></g></g><g transform="translate(-22,-10) scale(1,1)"><path fill="none" stroke="#000000" d="M 224 135 L 307 135" stroke-miterlimit="10"></path></g><g transform="translate(-22,-10) scale(1,1)"><path fill="none" stroke="#000000" d="M 296.83732514237585 139.209517756016 L 307 135 L 296.83732514237585 130.790482243984" stroke-miterlimit="10"></path></g><g transform="translate(-22,-10) scale(1,1)"><g><path fill="none" stroke="none"></path><text fill="#000000" stroke="none" font-family="Arial" font-size="13px" font-style="normal" font-weight="normal" text-decoration="none" x="253" y="127">bind</text></g></g><g transform="translate(-22,-10) scale(1,1)"><path fill="#C0C0C0" stroke="none" d="M 519 140.5 L 530.5 131 L 541 140.5 L 530.5 149 L 519 140.5" opacity="0.2"></path></g><g transform="translate(-22,-10) scale(1,1)"><path fill="#ffffff" stroke="none" d="M 512 133 L 523 124 L 534 133 L 523 142 L 512 133"></path></g><g transform="translate(-22,-10) scale(1,1)"><path fill="none" stroke="#000000" d="M 512 133 L 523 124 L 534 133 L 523 142 L 512 133 L 512 133" stroke-miterlimit="10"></path></g><g transform="translate(-22,-10) scale(1,1)"><path fill="none" stroke="#000000" d="M 368 135 L 511 133" stroke-miterlimit="10"></path></g><g transform="translate(-22,-10) scale(1,1)"><path fill="none" stroke="#000000" d="M 500.89718756670396 137.35122752078522 L 511 133 L 500.7794503329278 128.93301530579336" stroke-miterlimit="10"></path></g><g transform="translate(-22,-10) scale(1,1)"><g><path fill="none" stroke="none"></path><text fill="#000000" stroke="none" font-family="Arial" font-size="13px" font-style="normal" font-weight="normal" text-decoration="none" x="372" y="126">onAllCapabilitiesBound</text></g></g><g transform="translate(-22,-10) scale(1,1)"><path fill="none" stroke="#000000" d="M 535 124 L 582 88" stroke-miterlimit="10"></path></g><g transform="translate(-22,-10) scale(1,1)"><path fill="none" stroke="#000000" d="M 576.4917849396853 97.52153174911064 L 582 88 L 571.3723641115384 90.83784344569673" stroke-miterlimit="10"></path></g><g transform="translate(-22,-10) scale(1,1)"><g><path fill="none" stroke="none"></path><text fill="#000000" stroke="none" font-family="Arial" font-size="13px" font-style="normal" font-weight="normal" text-decoration="none" x="475" y="100">all dependencies resolved</text></g></g><g transform="translate(-22,-10) scale(1,1)"><path fill="none" stroke="#000000" d="M 535 142 L 579 175" stroke-miterlimit="10"></path></g><g transform="translate(-22,-10) scale(1,1)"><path fill="none" stroke="#000000" d="M 568.3441494602911 172.2700092902383 L 579 175 L 573.3955707675103 165.53478088061271" stroke-miterlimit="10"></path></g><g transform="translate(-22,-10) scale(1,1)"><g><path fill="none" stroke="none"></path><text fill="#000000" stroke="none" font-family="Arial" font-size="13px" font-style="normal" font-weight="normal" text-decoration="none" x="546" y="153">not OK</text></g></g></g></svg>