<svg version="1.1" xmlns="http://www.w3.org/2000/svg" xmlns:xlink="http://www.w3.org/1999/xlink" width="817" height="593"><defs></defs><g><g transform="translate(-75,-50) scale(1,1)"><rect fill="#C0C0C0" stroke="none" x="447" y="67" width="73" height="57" opacity="0.2"></rect></g><g transform="translate(-75,-50) scale(1,1)"><rect fill="#ffffff" stroke="none" x="440" y="60" width="73" height="57"></rect></g><g transform="translate(-75,-50) scale(1,1)"><path fill="none" stroke="#000000" d="M 440 60 L 513 60 L 513 117 L 440 117 L 440 60 Z Z" stroke-miterlimit="10"></path></g><g transform="translate(-75,-50) scale(1,1)"><path fill="none" stroke="#000000" d="M 440 98 L 513 98" stroke-miterlimit="10"></path></g><g transform="translate(-75,-50) scale(1,1)"><path fill="none" stroke="#000000" d="M 440 108 L 513 108" stroke-miterlimit="10"></path></g><g transform="translate(-75,-50) scale(1,1)"><g><path fill="none" stroke="none"></path><text fill="#000000" stroke="none" font-family="Arial" font-size="13px" font-style="normal" font-weight="normal" text-decoration="none" x="445" y="77.5">«Interface»</text></g></g><g transform="translate(-75,-50) scale(1,1)"><g><path fill="none" stroke="none"></path><text fill="#000000" stroke="none" font-family="Arial" font-size="13px" font-style="normal" font-weight="bold" text-decoration="none" x="448" y="92.5">Capability</text></g></g><g transform="translate(-75,-50) scale(1,1)"><rect fill="#C0C0C0" stroke="none" x="125" y="156" width="138" height="57" opacity="0.2"></rect></g><g transform="translate(-75,-50) scale(1,1)"><rect fill="#ffffff" stroke="none" x="118" y="149" width="138" height="57"></rect></g><g transform="translate(-75,-50) scale(1,1)"><path fill="none" stroke="#000000" d="M 118 149 L 256 149 L 256 206 L 118 206 L 118 149 Z Z" stroke-miterlimit="10"></path></g><g transform="translate(-75,-50) scale(1,1)"><path fill="none" stroke="#000000" d="M 118 187 L 256 187" stroke-miterlimit="10"></path></g><g transform="translate(-75,-50) scale(1,1)"><path fill="none" stroke="#000000" d="M 118 197 L 256 197" stroke-miterlimit="10"></path></g><g transform="translate(-75,-50) scale(1,1)"><g><path fill="none" stroke="none"></path><text fill="#000000" stroke="none" font-family="Arial" font-size="13px" font-style="normal" font-weight="normal" text-decoration="none" x="155.5" y="166.5">«Interface»</text></g></g><g transform="translate(-75,-50) scale(1,1)"><g><path fill="none" stroke="none"></path><text fill="#000000" stroke="none" font-family="Arial" font-size="13px" font-style="normal" font-weight="bold" text-decoration="none" x="128.5" y="181.5">NodeAnnouncement</text></g></g><g transform="translate(-75,-50) scale(1,1)"><rect fill="#C0C0C0" stroke="none" x="92" y="258" width="204" height="57" opacity="0.2"></rect></g><g transform="translate(-75,-50) scale(1,1)"><rect fill="#ffffff" stroke="none" x="85" y="251" width="204" height="57"></rect></g><g transform="translate(-75,-50) scale(1,1)"><path fill="none" stroke="#000000" d="M 85 251 L 289 251 L 289 308 L 85 308 L 85 251 Z Z" stroke-miterlimit="10"></path></g><g transform="translate(-75,-50) scale(1,1)"><path fill="none" stroke="#000000" d="M 85 289 L 289 289" stroke-miterlimit="10"></path></g><g transform="translate(-75,-50) scale(1,1)"><path fill="none" stroke="#000000" d="M 85 299 L 289 299" stroke-miterlimit="10"></path></g><g transform="translate(-75,-50) scale(1,1)"><g><path fill="none" stroke="none"></path><text fill="#000000" stroke="none" font-family="Arial" font-size="13px" font-style="normal" font-weight="normal" text-decoration="none" x="155.5" y="268.5">«Interface»</text></g></g><g transform="translate(-75,-50) scale(1,1)"><g><path fill="none" stroke="none"></path><text fill="#000000" stroke="none" font-family="Arial" font-size="13px" font-style="normal" font-weight="bold" text-decoration="none" x="100" y="283.5">UnreliableNodeAnnouncement</text></g></g><g transform="translate(-75,-50) scale(1,1)"><rect fill="#C0C0C0" stroke="none" x="99" y="366" width="191" height="57" opacity="0.2"></rect></g><g transform="translate(-75,-50) scale(1,1)"><rect fill="#ffffff" stroke="none" x="92" y="359" width="191" height="57"></rect></g><g transform="translate(-75,-50) scale(1,1)"><path fill="none" stroke="#000000" d="M 92 359 L 283 359 L 283 416 L 92 416 L 92 359 Z Z" stroke-miterlimit="10"></path></g><g transform="translate(-75,-50) scale(1,1)"><path fill="none" stroke="#000000" d="M 92 397 L 283 397" stroke-miterlimit="10"></path></g><g transform="translate(-75,-50) scale(1,1)"><path fill="none" stroke="#000000" d="M 92 407 L 283 407" stroke-miterlimit="10"></path></g><g transform="translate(-75,-50) scale(1,1)"><g><path fill="none" stroke="none"></path><text fill="#000000" stroke="none" font-family="Arial" font-size="13px" font-style="normal" font-weight="normal" text-decoration="none" x="156" y="376.5">«Interface»</text></g></g><g transform="translate(-75,-50) scale(1,1)"><g><path fill="none" stroke="none"></path><text fill="#000000" stroke="none" font-family="Arial" font-size="13px" font-style="normal" font-weight="bold" text-decoration="none" x="106" y="391.5">ReliableNodeAnnouncement</text></g></g><g transform="translate(-75,-50) scale(1,1)"><rect fill="#C0C0C0" stroke="none" x="432" y="156" width="103" height="57" opacity="0.2"></rect></g><g transform="translate(-75,-50) scale(1,1)"><rect fill="#ffffff" stroke="none" x="425" y="149" width="103" height="57"></rect></g><g transform="translate(-75,-50) scale(1,1)"><path fill="none" stroke="#000000" d="M 425 149 L 528 149 L 528 206 L 425 206 L 425 149 Z Z" stroke-miterlimit="10"></path></g><g transform="translate(-75,-50) scale(1,1)"><path fill="none" stroke="#000000" d="M 425 187 L 528 187" stroke-miterlimit="10"></path></g><g transform="translate(-75,-50) scale(1,1)"><path fill="none" stroke="#000000" d="M 425 197 L 528 197" stroke-miterlimit="10"></path></g><g transform="translate(-75,-50) scale(1,1)"><g><path fill="none" stroke="none"></path><text fill="#000000" stroke="none" font-family="Arial" font-size="13px" font-style="normal" font-weight="normal" text-decoration="none" x="445" y="166.5">«Interface»</text></g></g><g transform="translate(-75,-50) scale(1,1)"><g><path fill="none" stroke="none"></path><text fill="#000000" stroke="none" font-family="Arial" font-size="13px" font-style="normal" font-weight="bold" text-decoration="none" x="433.5" y="181.5">NodeDiscovery</text></g></g><g transform="translate(-75,-50) scale(1,1)"><rect fill="#C0C0C0" stroke="none" x="399" y="258" width="169" height="57" opacity="0.2"></rect></g><g transform="translate(-75,-50) scale(1,1)"><rect fill="#ffffff" stroke="none" x="392" y="251" width="169" height="57"></rect></g><g transform="translate(-75,-50) scale(1,1)"><path fill="none" stroke="#000000" d="M 392 251 L 561 251 L 561 308 L 392 308 L 392 251 Z Z" stroke-miterlimit="10"></path></g><g transform="translate(-75,-50) scale(1,1)"><path fill="none" stroke="#000000" d="M 392 289 L 561 289" stroke-miterlimit="10"></path></g><g transform="translate(-75,-50) scale(1,1)"><path fill="none" stroke="#000000" d="M 392 299 L 561 299" stroke-miterlimit="10"></path></g><g transform="translate(-75,-50) scale(1,1)"><g><path fill="none" stroke="none"></path><text fill="#000000" stroke="none" font-family="Arial" font-size="13px" font-style="normal" font-weight="normal" text-decoration="none" x="445" y="268.5">«Interface»</text></g></g><g transform="translate(-75,-50) scale(1,1)"><g><path fill="none" stroke="none"></path><text fill="#000000" stroke="none" font-family="Arial" font-size="13px" font-style="normal" font-weight="bold" text-decoration="none" x="405" y="283.5">UnreliableNodeDiscovery</text></g></g><g transform="translate(-75,-50) scale(1,1)"><rect fill="#C0C0C0" stroke="none" x="405" y="366" width="156" height="57" opacity="0.2"></rect></g><g transform="translate(-75,-50) scale(1,1)"><rect fill="#ffffff" stroke="none" x="398" y="359" width="156" height="57"></rect></g><g transform="translate(-75,-50) scale(1,1)"><path fill="none" stroke="#000000" d="M 398 359 L 554 359 L 554 416 L 398 416 L 398 359 Z Z" stroke-miterlimit="10"></path></g><g transform="translate(-75,-50) scale(1,1)"><path fill="none" stroke="#000000" d="M 398 397 L 554 397" stroke-miterlimit="10"></path></g><g transform="translate(-75,-50) scale(1,1)"><path fill="none" stroke="#000000" d="M 398 407 L 554 407" stroke-miterlimit="10"></path></g><g transform="translate(-75,-50) scale(1,1)"><g><path fill="none" stroke="none"></path><text fill="#000000" stroke="none" font-family="Arial" font-size="13px" font-style="normal" font-weight="normal" text-decoration="none" x="444.5" y="376.5">«Interface»</text></g></g><g transform="translate(-75,-50) scale(1,1)"><g><path fill="none" stroke="none"></path><text fill="#000000" stroke="none" font-family="Arial" font-size="13px" font-style="normal" font-weight="bold" text-decoration="none" x="410" y="391.5">ReliableNodeDiscovery</text></g></g><g transform="translate(-75,-50) scale(1,1)"><rect fill="#C0C0C0" stroke="none" x="725" y="156" width="98" height="57" opacity="0.2"></rect></g><g transform="translate(-75,-50) scale(1,1)"><rect fill="#ffffff" stroke="none" x="718" y="149" width="98" height="57"></rect></g><g transform="translate(-75,-50) scale(1,1)"><path fill="none" stroke="#000000" d="M 718 149 L 816 149 L 816 206 L 718 206 L 718 149 Z Z" stroke-miterlimit="10"></path></g><g transform="translate(-75,-50) scale(1,1)"><path fill="none" stroke="#000000" d="M 718 187 L 816 187" stroke-miterlimit="10"></path></g><g transform="translate(-75,-50) scale(1,1)"><path fill="none" stroke="#000000" d="M 718 197 L 816 197" stroke-miterlimit="10"></path></g><g transform="translate(-75,-50) scale(1,1)"><g><path fill="none" stroke="none"></path><text fill="#000000" stroke="none" font-family="Arial" font-size="13px" font-style="normal" font-weight="normal" text-decoration="none" x="735.5" y="166.5">«Interface»</text></g></g><g transform="translate(-75,-50) scale(1,1)"><g><path fill="none" stroke="none"></path><text fill="#000000" stroke="none" font-family="Arial" font-size="13px" font-style="normal" font-weight="bold" text-decoration="none" x="726.5" y="181.5">ReplicatedSet</text></g></g><g transform="translate(-75,-50) scale(1,1)"><rect fill="#C0C0C0" stroke="none" x="688" y="258" width="173" height="57" opacity="0.2"></rect></g><g transform="translate(-75,-50) scale(1,1)"><rect fill="#ffffff" stroke="none" x="681" y="251" width="173" height="57"></rect></g><g transform="translate(-75,-50) scale(1,1)"><path fill="none" stroke="#000000" d="M 681 251 L 854 251 L 854 308 L 681 308 L 681 251 Z Z" stroke-miterlimit="10"></path></g><g transform="translate(-75,-50) scale(1,1)"><path fill="none" stroke="#000000" d="M 681 289 L 854 289" stroke-miterlimit="10"></path></g><g transform="translate(-75,-50) scale(1,1)"><path fill="none" stroke="#000000" d="M 681 299 L 854 299" stroke-miterlimit="10"></path></g><g transform="translate(-75,-50) scale(1,1)"><g><path fill="none" stroke="none"></path><text fill="#000000" stroke="none" font-family="Arial" font-size="13px" font-style="normal" font-weight="normal" text-decoration="none" x="736" y="268.5">«Interface»</text></g></g><g transform="translate(-75,-50) scale(1,1)"><g><path fill="none" stroke="none"></path><text fill="#000000" stroke="none" font-family="Arial" font-size="13px" font-style="normal" font-weight="bold" text-decoration="none" x="692" y="283.5">InconsistentReplicatedSet</text></g></g><g transform="translate(-75,-50) scale(1,1)"><rect fill="#C0C0C0" stroke="none" x="660" y="366" width="229" height="57" opacity="0.2"></rect></g><g transform="translate(-75,-50) scale(1,1)"><rect fill="#ffffff" stroke="none" x="653" y="359" width="229" height="57"></rect></g><g transform="translate(-75,-50) scale(1,1)"><path fill="none" stroke="#000000" d="M 653 359 L 882 359 L 882 416 L 653 416 L 653 359 Z Z" stroke-miterlimit="10"></path></g><g transform="translate(-75,-50) scale(1,1)"><path fill="none" stroke="#000000" d="M 653 397 L 882 397" stroke-miterlimit="10"></path></g><g transform="translate(-75,-50) scale(1,1)"><path fill="none" stroke="#000000" d="M 653 407 L 882 407" stroke-miterlimit="10"></path></g><g transform="translate(-75,-50) scale(1,1)"><g><path fill="none" stroke="none"></path><text fill="#000000" stroke="none" font-family="Arial" font-size="13px" font-style="normal" font-weight="normal" text-decoration="none" x="736" y="376.5">«Interface»</text></g></g><g transform="translate(-75,-50) scale(1,1)"><g><path fill="none" stroke="none"></path><text fill="#000000" stroke="none" font-family="Arial" font-size="13px" font-style="normal" font-weight="bold" text-decoration="none" x="666.5" y="391.5">EventuallyConsistentReplicatedSet</text></g></g><g transform="translate(-75,-50) scale(1,1)"><rect fill="#C0C0C0" stroke="none" x="666" y="471" width="216" height="57" opacity="0.2"></rect></g><g transform="translate(-75,-50) scale(1,1)"><rect fill="#ffffff" stroke="none" x="659" y="464" width="216" height="57"></rect></g><g transform="translate(-75,-50) scale(1,1)"><path fill="none" stroke="#000000" d="M 659 464 L 875 464 L 875 521 L 659 521 L 659 464 Z Z" stroke-miterlimit="10"></path></g><g transform="translate(-75,-50) scale(1,1)"><path fill="none" stroke="#000000" d="M 659 502 L 875 502" stroke-miterlimit="10"></path></g><g transform="translate(-75,-50) scale(1,1)"><path fill="none" stroke="#000000" d="M 659 512 L 875 512" stroke-miterlimit="10"></path></g><g transform="translate(-75,-50) scale(1,1)"><g><path fill="none" stroke="none"></path><text fill="#000000" stroke="none" font-family="Arial" font-size="13px" font-style="normal" font-weight="normal" text-decoration="none" x="735.5" y="481.5">«Interface»</text></g></g><g transform="translate(-75,-50) scale(1,1)"><g><path fill="none" stroke="none"></path><text fill="#000000" stroke="none" font-family="Arial" font-size="13px" font-style="normal" font-weight="bold" text-decoration="none" x="671.5" y="496.5">StronglyConsistentReplicatedSet</text></g></g><g transform="translate(-75,-50) scale(1,1)"><rect fill="#C0C0C0" stroke="none" x="255" y="583" width="184" height="57" opacity="0.2"></rect></g><g transform="translate(-75,-50) scale(1,1)"><rect fill="#e2e2e2" stroke="none" x="248" y="576" width="184" height="57"></rect></g><g transform="translate(-75,-50) scale(1,1)"><path fill="none" stroke="#000000" d="M 248 576 L 432 576 L 432 633 L 248 633 L 248 576 Z Z" stroke-miterlimit="10"></path></g><g transform="translate(-75,-50) scale(1,1)"><path fill="none" stroke="#000000" d="M 248 601 L 432 601" stroke-miterlimit="10"></path></g><g transform="translate(-75,-50) scale(1,1)"><path fill="none" stroke="#000000" d="M 248 611 L 432 611" stroke-miterlimit="10"></path></g><g transform="translate(-75,-50) scale(1,1)"><g><path fill="none" stroke="none"></path><text fill="#000000" stroke="none" font-family="Arial" font-size="13px" font-style="normal" font-weight="bold" text-decoration="none" x="260.5" y="595.5">MyNodeAnnouncementImpl</text></g></g><g transform="translate(-75,-50) scale(1,1)"><rect fill="#C0C0C0" stroke="none" x="503" y="587" width="149" height="44" opacity="0.2"></rect></g><g transform="translate(-75,-50) scale(1,1)"><rect fill="#e2e2e2" stroke="none" x="496" y="580" width="149" height="44"></rect></g><g transform="translate(-75,-50) scale(1,1)"><path fill="none" stroke="#000000" d="M 496 580 L 645 580 L 645 624 L 496 624 L 496 580 Z Z" stroke-miterlimit="10"></path></g><g transform="translate(-75,-50) scale(1,1)"><path fill="none" stroke="#000000" d="M 496 605 L 645 605" stroke-miterlimit="10"></path></g><g transform="translate(-75,-50) scale(1,1)"><path fill="none" stroke="#000000" d="M 496 615 L 645 615" stroke-miterlimit="10"></path></g><g transform="translate(-75,-50) scale(1,1)"><g><path fill="none" stroke="none"></path><text fill="#000000" stroke="none" font-family="Arial" font-size="13px" font-style="normal" font-weight="bold" text-decoration="none" x="506.5" y="599.5">MyNodeDiscoveryImpl</text></g></g><g transform="translate(-75,-50) scale(1,1)"><path fill="none" stroke="#000000" d="M 257 155 L 439 99" stroke-miterlimit="10"></path></g><g transform="translate(-75,-50) scale(1,1)"><path fill="#FFFFFF" stroke="none" d="M 422.0493766021822 113.02413514001313 L 439 99 L 417.0975381922838 96.9306603078435"></path></g><g transform="translate(-75,-50) scale(1,1)"><path fill="none" stroke="#000000" d="M 422.0493766021822 113.02413514001313 L 439 99 L 417.0975381922838 96.9306603078435 L 422.0493766021822 113.02413514001313" stroke-miterlimit="10"></path></g><g transform="translate(-75,-50) scale(1,1)"><path fill="none" stroke="#000000" d="M 187 250 L 187 207" stroke-miterlimit="10"></path></g><g transform="translate(-75,-50) scale(1,1)"><path fill="#FFFFFF" stroke="none" d="M 195.41903551203197 227.3253497152483 L 187 207 L 178.58096448796803 227.3253497152483"></path></g><g transform="translate(-75,-50) scale(1,1)"><path fill="none" stroke="#000000" d="M 195.41903551203197 227.3253497152483 L 187 207 L 178.58096448796803 227.3253497152483 L 195.41903551203197 227.3253497152483" stroke-miterlimit="10"></path></g><g transform="translate(-75,-50) scale(1,1)"><path fill="none" stroke="#000000" d="M 187 358 L 187 309" stroke-miterlimit="10"></path></g><g transform="translate(-75,-50) scale(1,1)"><path fill="#FFFFFF" stroke="none" d="M 195.41903551203197 329.3253497152483 L 187 309 L 178.58096448796803 329.3253497152483"></path></g><g transform="translate(-75,-50) scale(1,1)"><path fill="none" stroke="#000000" d="M 195.41903551203197 329.3253497152483 L 187 309 L 178.58096448796803 329.3253497152483 L 195.41903551203197 329.3253497152483" stroke-miterlimit="10"></path></g><g transform="translate(-75,-50) scale(1,1)"><path fill="none" stroke="#000000" d="M 476 358 L 476 309" stroke-miterlimit="10"></path></g><g transform="translate(-75,-50) scale(1,1)"><path fill="#FFFFFF" stroke="none" d="M 484.419035512032 329.3253497152483 L 476 309 L 467.580964487968 329.3253497152483"></path></g><g transform="translate(-75,-50) scale(1,1)"><path fill="none" stroke="#000000" d="M 484.419035512032 329.3253497152483 L 476 309 L 467.580964487968 329.3253497152483 L 484.419035512032 329.3253497152483" stroke-miterlimit="10"></path></g><g transform="translate(-75,-50) scale(1,1)"><path fill="none" stroke="#000000" d="M 476 250 L 476 207" stroke-miterlimit="10"></path></g><g transform="translate(-75,-50) scale(1,1)"><path fill="#FFFFFF" stroke="none" d="M 484.419035512032 227.3253497152483 L 476 207 L 467.580964487968 227.3253497152483"></path></g><g transform="translate(-75,-50) scale(1,1)"><path fill="none" stroke="#000000" d="M 484.419035512032 227.3253497152483 L 476 207 L 467.580964487968 227.3253497152483 L 484.419035512032 227.3253497152483" stroke-miterlimit="10"></path></g><g transform="translate(-75,-50) scale(1,1)"><path fill="none" stroke="#000000" d="M 476 148 L 476 118" stroke-miterlimit="10"></path></g><g transform="translate(-75,-50) scale(1,1)"><path fill="#FFFFFF" stroke="none" d="M 484.419035512032 138.3253497152483 L 476 118 L 467.580964487968 138.3253497152483"></path></g><g transform="translate(-75,-50) scale(1,1)"><path fill="none" stroke="#000000" d="M 484.419035512032 138.3253497152483 L 476 118 L 467.580964487968 138.3253497152483 L 484.419035512032 138.3253497152483" stroke-miterlimit="10"></path></g><g transform="translate(-75,-50) scale(1,1)"><path fill="none" stroke="#000000" d="M 717 162 L 514 100" stroke-miterlimit="10"></path></g><g transform="translate(-75,-50) scale(1,1)"><path fill="#FFFFFF" stroke="none" d="M 535.8981138446508 97.88514538402362 L 514 100 L 530.9797328349281 113.98887675456696"></path></g><g transform="translate(-75,-50) scale(1,1)"><path fill="none" stroke="#000000" d="M 535.8981138446508 97.88514538402362 L 514 100 L 530.9797328349281 113.98887675456696 L 535.8981138446508 97.88514538402362" stroke-miterlimit="10"></path></g><g transform="translate(-75,-50) scale(1,1)"><path fill="none" stroke="#000000" d="M 767 250 L 767 207" stroke-miterlimit="10"></path></g><g transform="translate(-75,-50) scale(1,1)"><path fill="#FFFFFF" stroke="none" d="M 775.419035512032 227.3253497152483 L 767 207 L 758.580964487968 227.3253497152483"></path></g><g transform="translate(-75,-50) scale(1,1)"><path fill="none" stroke="#000000" d="M 775.419035512032 227.3253497152483 L 767 207 L 758.580964487968 227.3253497152483 L 775.419035512032 227.3253497152483" stroke-miterlimit="10"></path></g><g transform="translate(-75,-50) scale(1,1)"><path fill="none" stroke="#000000" d="M 767 358 L 767 309" stroke-miterlimit="10"></path></g><g transform="translate(-75,-50) scale(1,1)"><path fill="#FFFFFF" stroke="none" d="M 775.419035512032 329.3253497152483 L 767 309 L 758.580964487968 329.3253497152483"></path></g><g transform="translate(-75,-50) scale(1,1)"><path fill="none" stroke="#000000" d="M 775.419035512032 329.3253497152483 L 767 309 L 758.580964487968 329.3253497152483 L 775.419035512032 329.3253497152483" stroke-miterlimit="10"></path></g><g transform="translate(-75,-50) scale(1,1)"><path fill="none" stroke="#000000" d="M 767 463 L 767 417" stroke-miterlimit="10"></path></g><g transform="translate(-75,-50) scale(1,1)"><path fill="#FFFFFF" stroke="none" d="M 775.419035512032 437.3253497152483 L 767 417 L 758.580964487968 437.3253497152483"></path></g><g transform="translate(-75,-50) scale(1,1)"><path fill="none" stroke="#000000" d="M 775.419035512032 437.3253497152483 L 767 417 L 758.580964487968 437.3253497152483 L 775.419035512032 437.3253497152483" stroke-miterlimit="10"></path></g><g transform="translate(-75,-50) scale(1,1)"><path fill="none" stroke="#000000" d="M 340 576 L 340 352 M 340 352 A 8 8 0 0 0 332 344 L 249 344 M 249 344 A 8 8 0 0 1 241 336 L 241 308" stroke-miterlimit="10"></path></g><g transform="translate(-75,-50) scale(1,1)"><path fill="#FFFFFF" stroke="none" d="M 249.41903551203197 328.3253497152483 L 241 308 L 232.58096448796803 328.3253497152483"></path></g><g transform="translate(-75,-50) scale(1,1)"><path fill="none" stroke="#000000" d="M 249.41903551203197 328.3253497152483 L 241 308 L 232.58096448796803 328.3253497152483 L 249.41903551203197 328.3253497152483" stroke-miterlimit="10"></path></g><g transform="translate(-75,-50) scale(1,1)"><path fill="none" stroke="#000000" d="M 568 580 L 568 352 M 568 352 A 8 8 0 0 0 560 344 L 520 344 M 520 344 A 8 8 0 0 1 512 336 L 512 308" stroke-miterlimit="10"></path></g><g transform="translate(-75,-50) scale(1,1)"><path fill="#FFFFFF" stroke="none" d="M 520.419035512032 328.3253497152483 L 512 308 L 503.580964487968 328.3253497152483"></path></g><g transform="translate(-75,-50) scale(1,1)"><path fill="none" stroke="#000000" d="M 520.419035512032 328.3253497152483 L 512 308 L 503.580964487968 328.3253497152483 L 520.419035512032 328.3253497152483" stroke-miterlimit="10"></path></g><g transform="translate(-75,-50) scale(1,1)"><path fill="none" stroke="#000000" d="M 645 602 L 705 602 M 705 602 A 8 8 0 0 0 713 594 L 713 521" stroke-miterlimit="10" stroke-dasharray="3"></path></g><g transform="translate(-75,-50) scale(1,1)"><path fill="none" stroke="#000000" d="M 717.209517756016 531.1626748576241 L 713 521 L 708.790482243984 531.1626748576241" stroke-miterlimit="10"></path></g><g transform="translate(-75,-50) scale(1,1)"><g><path fill="none" stroke="none"></path><text fill="#000000" stroke="none" font-family="Arial" font-size="13px" font-style="normal" font-weight="normal" text-decoration="none" x="661" y="608">+depends on</text></g></g></g></svg>