<svg version="1.1" xmlns="http://www.w3.org/2000/svg" xmlns:xlink="http://www.w3.org/1999/xlink" width="712" height="432"><defs></defs><g><g transform="translate(-22,-22) scale(1,1)"><path fill="#ffffff" stroke="none" d="M 262.6666666666667 244 L 480.3333333333333 244 Q 535 244 535 298.6666666666667 L 535 368.3333333333333 Q 535 423 480.3333333333333 423 L 262.6666666666667 423 Q 208 423 208 368.3333333333333 L 208 298.6666666666667 Q 208 244 262.6666666666667 244 Z"></path></g><g transform="translate(-22,-22) scale(1,1)"><path fill="none" stroke="#000000" d="M 262.6666666666667 244 L 480.3333333333333 244 Q 535 244 535 298.6666666666667 L 535 368.3333333333333 Q 535 423 480.3333333333333 423 L 262.6666666666667 423 Q 208 423 208 368.3333333333333 L 208 298.6666666666667 Q 208 244 262.6666666666667 244 Z" stroke-miterlimit="10"></path></g><g transform="translate(-22,-22) scale(1,1)"><path fill="none" stroke="#000000" d="M 32 32 L 724 32 L 724 444 L 32 444 L 32 32" stroke-miterlimit="10"></path></g><g transform="translate(-22,-22) scale(1,1)"><path fill="#ffffff" stroke="none" d="M 32 32 L 32 54 L 275 54 L 286 43 L 286 32 L 32 32"></path></g><g transform="translate(-22,-22) scale(1,1)"><path fill="none" stroke="#000000" d="M 32 32 L 32 54 L 275 54 L 286 43 L 286 32 L 32 32 L 32 32" stroke-miterlimit="10"></path></g><g transform="translate(-22,-22) scale(1,1)"><g><path fill="none" stroke="none"></path><text fill="#000000" stroke="none" font-family="Arial" font-size="13px" font-style="normal" font-weight="normal" text-decoration="none" x="74" y="49.5">node and application relationships</text></g></g><g transform="translate(-22,-22) scale(1,1)"><g><path fill="none" stroke="none"></path><text fill="#000000" stroke="none" font-family="Arial" font-size="13px" font-style="normal" font-weight="bold" text-decoration="none" x="37" y="49.5">class</text></g></g><g transform="translate(-22,-22) scale(1,1)"><rect fill="#C0C0C0" stroke="none" x="275" y="104" width="204" height="87" opacity="0.2"></rect></g><g transform="translate(-22,-22) scale(1,1)"><rect fill="#ffffff" stroke="none" x="268" y="97" width="204" height="87"></rect></g><g transform="translate(-22,-22) scale(1,1)"><path fill="none" stroke="#000000" d="M 268 97 L 472 97 L 472 184 L 268 184 L 268 97 Z Z" stroke-miterlimit="10"></path></g><g transform="translate(-22,-22) scale(1,1)"><path fill="none" stroke="#000000" d="M 268 122 L 472 122" stroke-miterlimit="10"></path></g><g transform="translate(-22,-22) scale(1,1)"><path fill="none" stroke="#000000" d="M 268 132 L 472 132" stroke-miterlimit="10"></path></g><g transform="translate(-22,-22) scale(1,1)"><g><path fill="none" stroke="none"></path><text fill="#000000" stroke="none" font-family="Arial" font-size="13px" font-style="italic" font-weight="bold" text-decoration="none" x="355" y="116.5">Node</text></g></g><g transform="translate(-22,-22) scale(1,1)"><g><path fill="none" stroke="none"></path><text fill="#000000" stroke="none" font-family="Arial" font-size="13px" font-style="normal" font-weight="normal" text-decoration="none" x="273" y="149.5">+getId()</text></g></g><g transform="translate(-22,-22) scale(1,1)"><g><path fill="none" stroke="none"></path><text fill="#000000" stroke="none" font-family="Arial" font-size="13px" font-style="normal" font-weight="normal" text-decoration="none" x="273" y="164.5">+getCapability(capabilityInterface)</text></g></g><g transform="translate(-22,-22) scale(1,1)"><g><path fill="none" stroke="none"></path><text fill="#000000" stroke="none" font-family="Arial" font-size="13px" font-style="normal" font-weight="normal" text-decoration="none" x="273" y="179.5">+getState()</text></g></g><g transform="translate(-22,-22) scale(1,1)"><rect fill="#C0C0C0" stroke="none" x="83" y="125" width="87" height="44" opacity="0.2"></rect></g><g transform="translate(-22,-22) scale(1,1)"><rect fill="#ffffff" stroke="none" x="76" y="118" width="87" height="44"></rect></g><g transform="translate(-22,-22) scale(1,1)"><path fill="none" stroke="#000000" d="M 76 118 L 163 118 L 163 162 L 76 162 L 76 118 Z Z" stroke-miterlimit="10"></path></g><g transform="translate(-22,-22) scale(1,1)"><path fill="none" stroke="#000000" d="M 76 143 L 163 143" stroke-miterlimit="10"></path></g><g transform="translate(-22,-22) scale(1,1)"><path fill="none" stroke="#000000" d="M 76 153 L 163 153" stroke-miterlimit="10"></path></g><g transform="translate(-22,-22) scale(1,1)"><g><path fill="none" stroke="none"></path><text fill="#000000" stroke="none" font-family="Arial" font-size="13px" font-style="normal" font-weight="bold" text-decoration="none" x="87.5" y="137.5">Application</text></g></g><g transform="translate(-22,-22) scale(1,1)"><path fill="none" stroke="#000000" d="M 164 140 L 267 140" stroke-miterlimit="10" stroke-dasharray="3"></path></g><g transform="translate(-22,-22) scale(1,1)"><path fill="none" stroke="#000000" d="M 256.83732514237585 144.209517756016 L 267 140 L 256.83732514237585 135.790482243984" stroke-miterlimit="10"></path></g><g transform="translate(-22,-22) scale(1,1)"><g><path fill="none" stroke="none"></path><text fill="#000000" stroke="none" font-family="Arial" font-size="13px" font-style="normal" font-weight="normal" text-decoration="none" x="197" y="132">+uses</text></g></g><g transform="translate(-22,-22) scale(1,1)"><rect fill="#C0C0C0" stroke="none" x="291" y="363" width="174" height="44" opacity="0.2"></rect></g><g transform="translate(-22,-22) scale(1,1)"><rect fill="#ffffff" stroke="none" x="284" y="356" width="174" height="44"></rect></g><g transform="translate(-22,-22) scale(1,1)"><path fill="none" stroke="#000000" d="M 284 356 L 458 356 L 458 400 L 284 400 L 284 356 Z Z" stroke-miterlimit="10"></path></g><g transform="translate(-22,-22) scale(1,1)"><path fill="none" stroke="#000000" d="M 284 381 L 458 381" stroke-miterlimit="10"></path></g><g transform="translate(-22,-22) scale(1,1)"><path fill="none" stroke="#000000" d="M 284 391 L 458 391" stroke-miterlimit="10"></path></g><g transform="translate(-22,-22) scale(1,1)"><g><path fill="none" stroke="none"></path><text fill="#000000" stroke="none" font-family="Arial" font-size="13px" font-style="normal" font-weight="bold" text-decoration="none" x="296.5" y="375.5">MonasteryImplementation</text></g></g><g transform="translate(-22,-22) scale(1,1)"><rect fill="#C0C0C0" stroke="none" x="307" y="271" width="142" height="44" opacity="0.2"></rect></g><g transform="translate(-22,-22) scale(1,1)"><rect fill="#ffffff" stroke="none" x="300" y="264" width="142" height="44"></rect></g><g transform="translate(-22,-22) scale(1,1)"><path fill="none" stroke="#000000" d="M 300 264 L 442 264 L 442 308 L 300 308 L 300 264 Z Z" stroke-miterlimit="10"></path></g><g transform="translate(-22,-22) scale(1,1)"><path fill="none" stroke="#000000" d="M 300 289 L 442 289" stroke-miterlimit="10"></path></g><g transform="translate(-22,-22) scale(1,1)"><path fill="none" stroke="#000000" d="M 300 299 L 442 299" stroke-miterlimit="10"></path></g><g transform="translate(-22,-22) scale(1,1)"><g><path fill="none" stroke="none"></path><text fill="#000000" stroke="none" font-family="Arial" font-size="13px" font-style="normal" font-weight="bold" text-decoration="none" x="312" y="283.5">NodeImplementation</text></g></g><g transform="translate(-22,-22) scale(1,1)"><path fill="none" stroke="#000000" d="M 371 263 L 370 185" stroke-miterlimit="10"></path></g><g transform="translate(-22,-22) scale(1,1)"><path fill="#FFFFFF" stroke="none" d="M 378.67890369155907 205.21575204420162 L 370 185 L 361.8422162963256 205.43160701080717"></path></g><g transform="translate(-22,-22) scale(1,1)"><path fill="none" stroke="#000000" d="M 378.67890369155907 205.21575204420162 L 370 185 L 361.8422162963256 205.43160701080717 L 378.67890369155907 205.21575204420162" stroke-miterlimit="10"></path></g><g transform="translate(-22,-22) scale(1,1)"><g><path fill="none" stroke="none"></path><text fill="#000000" stroke="none" font-family="Arial" font-size="13px" font-style="normal" font-weight="normal" text-decoration="none" x="318" y="230">+implements</text></g></g><g transform="translate(-22,-22) scale(1,1)"><path fill="none" stroke="#000000" d="M 371 309 L 371 355" stroke-miterlimit="10" stroke-dasharray="3"></path></g><g transform="translate(-22,-22) scale(1,1)"><path fill="none" stroke="#000000" d="M 366.790482243984 344.83732514237585 L 371 355 L 375.209517756016 344.83732514237585" stroke-miterlimit="10"></path></g><g transform="translate(-22,-22) scale(1,1)"><g><path fill="none" stroke="none"></path><text fill="#000000" stroke="none" font-family="Arial" font-size="13px" font-style="normal" font-weight="normal" text-decoration="none" x="340" y="338">+interfaces with</text></g></g><g transform="translate(-22,-22) scale(1,1)"><rect fill="#C0C0C0" stroke="none" x="571" y="102" width="110" height="90" opacity="0.2"></rect></g><g transform="translate(-22,-22) scale(1,1)"><rect fill="#ffffff" stroke="none" x="564" y="95" width="110" height="90"></rect></g><g transform="translate(-22,-22) scale(1,1)"><path fill="none" stroke="#000000" d="M 564 95 L 674 95 L 674 185 L 564 185 L 564 95 Z Z" stroke-miterlimit="10"></path></g><g transform="translate(-22,-22) scale(1,1)"><path fill="none" stroke="#000000" d="M 564 133 L 674 133" stroke-miterlimit="10"></path></g><g transform="translate(-22,-22) scale(1,1)"><g><path fill="none" stroke="none"></path><text fill="#000000" stroke="none" font-family="Arial" font-size="13px" font-style="normal" font-weight="normal" text-decoration="none" x="576.5" y="112.5">«enumeration»</text></g></g><g transform="translate(-22,-22) scale(1,1)"><g><path fill="none" stroke="none"></path><text fill="#000000" stroke="none" font-family="Arial" font-size="13px" font-style="normal" font-weight="bold" text-decoration="none" x="585" y="127.5">NodeStates</text></g></g><g transform="translate(-22,-22) scale(1,1)"><g><path fill="none" stroke="none"></path><text fill="#000000" stroke="none" font-family="Arial" font-size="13px" font-style="normal" font-weight="normal" text-decoration="none" x="569" y="150.5">DISCONNECTED</text></g></g><g transform="translate(-22,-22) scale(1,1)"><g><path fill="none" stroke="none"></path><text fill="#000000" stroke="none" font-family="Arial" font-size="13px" font-style="normal" font-weight="normal" text-decoration="none" x="569" y="165.5">ANNOUNCED</text></g></g><g transform="translate(-22,-22) scale(1,1)"><g><path fill="none" stroke="none"></path><text fill="#000000" stroke="none" font-family="Arial" font-size="13px" font-style="normal" font-weight="normal" text-decoration="none" x="569" y="180.5">JOINED</text></g></g><g transform="translate(-22,-22) scale(1,1)"><path fill="none" stroke="#000000" d="M 563 140 L 473 140" stroke-miterlimit="10"></path></g><g transform="translate(-22,-22) scale(1,1)"><path fill="#000000" stroke="none" d="M 483.16267485762415 135.790482243984 L 473 140 L 483.16267485762415 144.209517756016 L 495 140"></path></g><g transform="translate(-22,-22) scale(1,1)"><path fill="none" stroke="#000000" d="M 483.16267485762415 135.790482243984 L 473 140 L 483.16267485762415 144.209517756016 L 495 140 L 483.16267485762415 135.790482243984" stroke-miterlimit="10"></path></g><g transform="translate(-22,-22) scale(1,1)"><g><path fill="none" stroke="none"></path><text fill="#000000" stroke="none" font-family="Arial" font-size="13px" font-style="normal" font-weight="normal" text-decoration="none" x="503" y="162">+has</text></g></g></g></svg>