<?xml version="1.0" encoding="UTF-8"?><svg xmlns="http://www.w3.org/2000/svg" xmlns:xlink="http://www.w3.org/1999/xlink" fill-opacity="1" color-rendering="auto" color-interpolation="auto" text-rendering="auto" stroke="black" stroke-linecap="square" width="522" stroke-miterlimit="10" shape-rendering="auto" stroke-opacity="1" fill="black" stroke-dasharray="none" font-weight="normal" stroke-width="1" height="453" font-family="'Dialog'" font-style="normal" stroke-linejoin="miter" font-size="12px" stroke-dashoffset="0" image-rendering="auto">
  <!--Generated by ySVG 2.5-->
  <defs id="genericDefs"/>
  <g>
    <defs id="defs1">
      <linearGradient x1="357" gradientUnits="userSpaceOnUse" x2="437" y1="273.4062" y2="338" id="linearGradient1" spreadMethod="reflect">
        <stop stop-opacity="1" stop-color="white" offset="0%"/>
        <stop stop-opacity="1" stop-color="white" offset="100%"/>
      </linearGradient>
      <linearGradient x1="150.5" gradientUnits="userSpaceOnUse" x2="283.5" y1="273.4062" y2="338" id="linearGradient2" spreadMethod="reflect">
        <stop stop-opacity="1" stop-color="white" offset="0%"/>
        <stop stop-opacity="1" stop-color="white" offset="100%"/>
      </linearGradient>
      <linearGradient x1="150.5" gradientUnits="userSpaceOnUse" x2="283.5" y1="393.4062" y2="458" id="linearGradient3" spreadMethod="reflect">
        <stop stop-opacity="1" stop-color="white" offset="0%"/>
        <stop stop-opacity="1" stop-color="white" offset="100%"/>
      </linearGradient>
      <linearGradient x1="503" gradientUnits="userSpaceOnUse" x2="583" y1="273.4062" y2="338" id="linearGradient4" spreadMethod="reflect">
        <stop stop-opacity="1" stop-color="white" offset="0%"/>
        <stop stop-opacity="1" stop-color="white" offset="100%"/>
      </linearGradient>
      <clipPath clipPathUnits="userSpaceOnUse" id="clipPath1">
        <path d="M0 0 L522 0 L522 453 L0 453 L0 0 Z"/>
      </clipPath>
      <clipPath clipPathUnits="userSpaceOnUse" id="clipPath2">
        <path d="M91 75 L613 75 L613 528 L91 528 L91 75 Z"/>
      </clipPath>
      <clipPath clipPathUnits="userSpaceOnUse" id="clipPath3">
        <path d="M91 273.4062 L91 528 L613 528 L613 273.4062 Z"/>
      </clipPath>
      <clipPath clipPathUnits="userSpaceOnUse" id="clipPath4">
        <path d="M91 75 L91 273.4062 L613 273.4062 L613 75 Z"/>
      </clipPath>
      <clipPath clipPathUnits="userSpaceOnUse" id="clipPath5">
        <path d="M91 393.4062 L91 528 L613 528 L613 393.4062 Z"/>
      </clipPath>
      <clipPath clipPathUnits="userSpaceOnUse" id="clipPath6">
        <path d="M91 75 L91 393.4062 L613 393.4062 L613 75 Z"/>
      </clipPath>
    </defs>
    <g fill="white" text-rendering="geometricPrecision" shape-rendering="geometricPrecision" transform="translate(-91,-75)" stroke="white">
      <rect x="91" width="522" height="453" y="75" clip-path="url(#clipPath2)" stroke="none"/>
    </g>
    <g fill="white" text-rendering="geometricPrecision" shape-rendering="geometricPrecision" transform="matrix(1,0,0,1,-91,-75)" stroke="white">
      <rect x="150.5" y="90" clip-path="url(#clipPath2)" width="133" rx="4" ry="4" height="80" stroke="none"/>
    </g>
    <g font-size="14px" stroke-linecap="butt" transform="matrix(1,0,0,1,-91,-75)" text-rendering="geometricPrecision" font-family="'Liberation Sans'" shape-rendering="geometricPrecision" stroke-miterlimit="1.45">
      <text x="182.7554" xml:space="preserve" y="135.0825" clip-path="url(#clipPath2)" stroke="none">Application</text>
      <rect x="150.5" y="90" clip-path="url(#clipPath2)" fill="none" width="133" rx="4" ry="4" height="80"/>
    </g>
    <g fill="rgb(245,245,245)" text-rendering="geometricPrecision" shape-rendering="geometricPrecision" transform="matrix(1,0,0,1,-91,-75)" stroke="rgb(245,245,245)">
      <rect x="106.5" y="210.2422" clip-path="url(#clipPath2)" width="491.5" rx="4" ry="4" height="302.2578" stroke="none"/>
      <rect x="106.5" y="210.2422" clip-path="url(#clipPath2)" fill="rgb(235,235,235)" width="491.5" height="22.7578" stroke="none"/>
    </g>
    <g font-size="15px" stroke-linecap="butt" transform="matrix(1,0,0,1,-91,-75)" text-rendering="geometricPrecision" font-family="'Liberation Sans'" shape-rendering="geometricPrecision" stroke-miterlimit="1.45">
      <text x="496.6284" xml:space="preserve" y="227.0667" clip-path="url(#clipPath2)" stroke="none">Monastery API</text>
      <rect x="106.5" y="210.2422" clip-path="url(#clipPath2)" fill="none" width="491.5" stroke-dasharray="6,2" rx="4" ry="4" height="302.2578"/>
    </g>
    <g fill="url(#linearGradient1)" text-rendering="geometricPrecision" shape-rendering="geometricPrecision" transform="matrix(1,0,0,1,-91,-75)" stroke="url(#linearGradient1)">
      <rect x="357" y="248" clip-path="url(#clipPath3)" width="80" rx="4" ry="4" height="90" stroke="none"/>
      <rect x="357" y="248" clip-path="url(#clipPath4)" fill="white" width="80" rx="4" ry="4" height="90" stroke="none"/>
    </g>
    <g text-rendering="geometricPrecision" stroke-miterlimit="1.45" shape-rendering="geometricPrecision" transform="matrix(1,0,0,1,-91,-75)" stroke-linecap="butt">
      <rect x="357" y="248" clip-path="url(#clipPath2)" fill="none" width="80" rx="4" ry="4" height="90"/>
      <line y2="273.4062" fill="none" x1="357" clip-path="url(#clipPath2)" x2="437" y1="273.4062"/>
      <text x="382.6562" xml:space="preserve" y="265.0596" clip-path="url(#clipPath2)" font-family="'Liberation Sans'" stroke="none">Node</text>
      <text x="361" xml:space="preserve" y="290.4658" clip-path="url(#clipPath2)" font-family="'Liberation Sans'" stroke="none">ID</text>
      <text x="361" xml:space="preserve" y="303.8721" clip-path="url(#clipPath2)" font-family="'Liberation Sans'" stroke="none">Capabilities</text>
      <text x="361" xml:space="preserve" y="317.2783" clip-path="url(#clipPath2)" font-family="'Liberation Sans'" stroke="none">State</text>
    </g>
    <g fill="url(#linearGradient2)" text-rendering="geometricPrecision" shape-rendering="geometricPrecision" transform="matrix(1,0,0,1,-91,-75)" stroke="url(#linearGradient2)">
      <rect x="150.5" y="248" clip-path="url(#clipPath3)" width="133" rx="4" ry="4" height="90" stroke="none"/>
      <rect x="150.5" y="248" clip-path="url(#clipPath4)" fill="white" width="133" rx="4" ry="4" height="90" stroke="none"/>
    </g>
    <g text-rendering="geometricPrecision" stroke-miterlimit="1.45" shape-rendering="geometricPrecision" transform="matrix(1,0,0,1,-91,-75)" stroke-linecap="butt">
      <rect x="150.5" y="248" clip-path="url(#clipPath2)" fill="none" width="133" rx="4" ry="4" height="90"/>
      <line y2="273.4062" fill="none" x1="150.5" clip-path="url(#clipPath2)" x2="283.5" y1="273.4062"/>
      <text x="180.3145" xml:space="preserve" y="265.0596" clip-path="url(#clipPath2)" font-family="'Liberation Sans'" stroke="none">NodeProvider</text>
      <text x="154.5" xml:space="preserve" y="290.4658" clip-path="url(#clipPath2)" font-family="'Liberation Sans'" stroke="none">connect()</text>
    </g>
    <g fill="url(#linearGradient3)" text-rendering="geometricPrecision" shape-rendering="geometricPrecision" transform="matrix(1,0,0,1,-91,-75)" stroke="url(#linearGradient3)">
      <rect x="150.5" y="368" clip-path="url(#clipPath5)" width="133" rx="4" ry="4" height="90" stroke="none"/>
      <rect x="150.5" y="368" clip-path="url(#clipPath6)" fill="white" width="133" rx="4" ry="4" height="90" stroke="none"/>
    </g>
    <g text-rendering="geometricPrecision" stroke-miterlimit="1.45" shape-rendering="geometricPrecision" transform="matrix(1,0,0,1,-91,-75)" stroke-linecap="butt">
      <rect x="150.5" y="368" clip-path="url(#clipPath2)" fill="none" width="133" rx="4" ry="4" height="90"/>
      <line y2="393.4062" fill="none" x1="150.5" clip-path="url(#clipPath2)" x2="283.5" y1="393.4062"/>
      <text x="161.6377" xml:space="preserve" y="385.0596" clip-path="url(#clipPath2)" font-family="'Liberation Sans'" stroke="none">NodeProviderBuilder</text>
      <text x="154.5" xml:space="preserve" y="410.4658" clip-path="url(#clipPath2)" font-family="'Liberation Sans'" stroke="none">build()</text>
    </g>
    <g fill="url(#linearGradient4)" text-rendering="geometricPrecision" shape-rendering="geometricPrecision" transform="matrix(1,0,0,1,-91,-75)" stroke="url(#linearGradient4)">
      <rect x="503" y="248" clip-path="url(#clipPath3)" width="80" rx="4" ry="4" height="90" stroke="none"/>
      <rect x="503" y="248" clip-path="url(#clipPath4)" fill="white" width="80" rx="4" ry="4" height="90" stroke="none"/>
    </g>
    <g text-rendering="geometricPrecision" stroke-miterlimit="1.45" shape-rendering="geometricPrecision" transform="matrix(1,0,0,1,-91,-75)" stroke-linecap="butt">
      <rect x="503" y="248" clip-path="url(#clipPath2)" fill="none" width="80" rx="4" ry="4" height="90"/>
      <line y2="273.4062" fill="none" x1="503" clip-path="url(#clipPath2)" x2="583" y1="273.4062"/>
      <text x="516.6533" xml:space="preserve" y="265.0596" clip-path="url(#clipPath2)" font-family="'Liberation Sans'" stroke="none">Capability</text>
    </g>
    <g fill="rgb(255,255,204)" text-rendering="geometricPrecision" shape-rendering="geometricPrecision" transform="matrix(1,0,0,1,-91,-75)" stroke="rgb(255,255,204)">
      <path d="M201 434.25 L286 434.25 L286 449.25 L301 449.25 L301 472.25 L201 472.25 Z" stroke="none" clip-path="url(#clipPath2)"/>
      <path fill="white" d="M286 434.25 L286 449.25 L301 449.25 Z" clip-path="url(#clipPath2)" fill-rule="evenodd" stroke="none"/>
    </g>
    <g text-rendering="geometricPrecision" stroke-miterlimit="1.45" shape-rendering="geometricPrecision" transform="matrix(1,0,0,1,-91,-75)" stroke-linecap="butt">
      <path fill="none" d="M201 434.25 L286 434.25 L286 449.25 L301 449.25 L301 472.25 L201 472.25 Z" clip-path="url(#clipPath2)"/>
      <path fill="none" d="M286 434.25 L286 449.25 L301 449.25 Z" clip-path="url(#clipPath2)" fill-rule="evenodd"/>
      <text x="217.9824" xml:space="preserve" y="450.9033" clip-path="url(#clipPath2)" font-family="'Liberation Sans'" stroke="none">normal point</text>
      <text x="230.9902" xml:space="preserve" y="464.3096" clip-path="url(#clipPath2)" font-family="'Liberation Sans'" stroke="none">of entry</text>
    </g>
    <g fill="rgb(255,255,204)" text-rendering="geometricPrecision" shape-rendering="geometricPrecision" transform="matrix(1,0,0,1,-91,-75)" stroke="rgb(255,255,204)">
      <path d="M403.5 328 L521.5 328 L521.5 343 L536.5 343 L536.5 366 L403.5 366 Z" stroke="none" clip-path="url(#clipPath2)"/>
      <path fill="white" d="M521.5 328 L521.5 343 L536.5 343 Z" clip-path="url(#clipPath2)" fill-rule="evenodd" stroke="none"/>
    </g>
    <g text-rendering="geometricPrecision" stroke-miterlimit="1.45" shape-rendering="geometricPrecision" transform="matrix(1,0,0,1,-91,-75)" stroke-linecap="butt">
      <path fill="none" d="M403.5 328 L521.5 328 L521.5 343 L536.5 343 L536.5 366 L403.5 366 Z" clip-path="url(#clipPath2)"/>
      <path fill="none" d="M521.5 328 L521.5 343 L536.5 343 Z" clip-path="url(#clipPath2)" fill-rule="evenodd"/>
      <text x="425.6504" xml:space="preserve" y="344.6533" clip-path="url(#clipPath2)" font-family="'Liberation Sans'" stroke="none">primary points of</text>
      <text x="442.3174" xml:space="preserve" y="358.0596" clip-path="url(#clipPath2)" font-family="'Liberation Sans'" stroke="none">interaction</text>
      <path fill="none" stroke-dasharray="6,2" d="M267.6471 169.9944 L314.7052 207.1547" clip-path="url(#clipPath2)"/>
      <path stroke-dasharray="6,2" d="M317.8445 209.6336 L312.1452 197.4879 L317.8445 209.6336 L304.7083 206.9056 Z" clip-path="url(#clipPath2)" stroke="none"/>
      <path fill="none" stroke-miterlimit="10" d="M317.8445 209.6336 L312.1452 197.4879 L317.8445 209.6336 L304.7083 206.9056 Z" clip-path="url(#clipPath2)" stroke-linecap="square"/>
      <text x="292.8925" xml:space="preserve" y="186.5895" clip-path="url(#clipPath2)" font-family="sans-serif" stroke="none">uses</text>
      <path fill="none" stroke-dasharray="6,2" d="M283.4893 293 L352.0107 293" clip-path="url(#clipPath2)"/>
      <path stroke-dasharray="6,2" d="M356.0107 293 L344.0107 287 L356.0107 293 L344.0107 299 Z" clip-path="url(#clipPath2)" stroke="none"/>
      <path fill="none" stroke-miterlimit="10" d="M356.0107 293 L344.0107 287 L356.0107 293 L344.0107 299 Z" clip-path="url(#clipPath2)" stroke-linecap="square"/>
      <text x="284.2711" xml:space="preserve" y="315.6705" clip-path="url(#clipPath2)" font-family="sans-serif" stroke="none">creates future</text>
      <path fill="none" stroke-dasharray="6,2" d="M217 367.9707 L217 342.9897" clip-path="url(#clipPath2)"/>
      <path stroke-dasharray="6,2" d="M217 338.9897 L211 350.9897 L217 338.9897 L223 350.9897 Z" clip-path="url(#clipPath2)" stroke="none"/>
      <path fill="none" stroke-miterlimit="10" d="M217 338.9897 L211 350.9897 L217 338.9897 L223 350.9897 Z" clip-path="url(#clipPath2)" stroke-linecap="square"/>
      <text x="231.3232" xml:space="preserve" y="357.7139" clip-path="url(#clipPath2)" font-family="sans-serif" stroke="none">builds</text>
      <path fill="none" d="M444.0288 293 L502.9762 293" clip-path="url(#clipPath2)"/>
      <path fill="white" d="M437.0288 293 L444.0288 288 L451.0288 293 L444.0288 298 Z" clip-path="url(#clipPath2)" stroke="none"/>
      <path fill="none" d="M437.0288 293 L444.0288 288 L451.0288 293 L444.0288 298 Z" clip-path="url(#clipPath2)"/>
      <text x="444.7221" xml:space="preserve" y="275.0518" clip-path="url(#clipPath2)" font-family="sans-serif" stroke="none">has many</text>
    </g>
  </g>
</svg>
