<?xml version="1.0" encoding="UTF-8"?><svg xmlns="http://www.w3.org/2000/svg" xmlns:xlink="http://www.w3.org/1999/xlink" fill-opacity="1" color-rendering="auto" color-interpolation="auto" text-rendering="auto" stroke="black" stroke-linecap="square" width="522" stroke-miterlimit="10" shape-rendering="auto" stroke-opacity="1" fill="black" stroke-dasharray="none" font-weight="normal" stroke-width="1" height="448" font-family="'Dialog'" font-style="normal" stroke-linejoin="miter" font-size="12px" stroke-dashoffset="0" image-rendering="auto">
  <!--Generated by ySVG 2.5-->
  <defs id="genericDefs"/>
  <g>
    <defs id="defs1">
      <linearGradient x1="357" gradientUnits="userSpaceOnUse" x2="437" y1="268.4062" y2="333" id="linearGradient1" spreadMethod="reflect">
        <stop stop-opacity="1" stop-color="white" offset="0%"/>
        <stop stop-opacity="1" stop-color="white" offset="100%"/>
      </linearGradient>
      <linearGradient x1="150.5" gradientUnits="userSpaceOnUse" x2="283.5" y1="268.4062" y2="333" id="linearGradient2" spreadMethod="reflect">
        <stop stop-opacity="1" stop-color="white" offset="0%"/>
        <stop stop-opacity="1" stop-color="white" offset="100%"/>
      </linearGradient>
      <linearGradient x1="150.5" gradientUnits="userSpaceOnUse" x2="283.5" y1="388.4062" y2="453" id="linearGradient3" spreadMethod="reflect">
        <stop stop-opacity="1" stop-color="white" offset="0%"/>
        <stop stop-opacity="1" stop-color="white" offset="100%"/>
      </linearGradient>
      <linearGradient x1="503" gradientUnits="userSpaceOnUse" x2="583" y1="268.4062" y2="333" id="linearGradient4" spreadMethod="reflect">
        <stop stop-opacity="1" stop-color="white" offset="0%"/>
        <stop stop-opacity="1" stop-color="white" offset="100%"/>
      </linearGradient>
      <clipPath clipPathUnits="userSpaceOnUse" id="clipPath1">
        <path d="M0 0 L522 0 L522 448 L0 448 L0 0 Z"/>
      </clipPath>
      <clipPath clipPathUnits="userSpaceOnUse" id="clipPath2">
        <path d="M91 75 L613 75 L613 523 L91 523 L91 75 Z"/>
      </clipPath>
      <clipPath clipPathUnits="userSpaceOnUse" id="clipPath3">
        <path d="M91 268.4062 L91 523 L613 523 L613 268.4062 Z"/>
      </clipPath>
      <clipPath clipPathUnits="userSpaceOnUse" id="clipPath4">
        <path d="M91 75 L91 268.4062 L613 268.4062 L613 75 Z"/>
      </clipPath>
      <clipPath clipPathUnits="userSpaceOnUse" id="clipPath5">
        <path d="M91 388.4062 L91 523 L613 523 L613 388.4062 Z"/>
      </clipPath>
      <clipPath clipPathUnits="userSpaceOnUse" id="clipPath6">
        <path d="M91 75 L91 388.4062 L613 388.4062 L613 75 Z"/>
      </clipPath>
    </defs>
    <g fill="white" text-rendering="geometricPrecision" shape-rendering="geometricPrecision" transform="matrix(1,0,0,1,-91,-75)" stroke="white">
      <rect x="150.5" y="90" clip-path="url(#clipPath2)" width="133" rx="4" ry="4" height="80" stroke="none"/>
    </g>
    <g font-size="14px" stroke-linecap="butt" transform="matrix(1,0,0,1,-91,-75)" text-rendering="geometricPrecision" font-family="'Liberation Sans'" shape-rendering="geometricPrecision" stroke-miterlimit="1.45">
      <text x="182.7554" xml:space="preserve" y="135.0825" clip-path="url(#clipPath2)" stroke="none">Application</text>
      <rect x="150.5" y="90" clip-path="url(#clipPath2)" fill="none" width="133" rx="4" ry="4" height="80"/>
    </g>
    <g fill="rgb(245,245,245)" text-rendering="geometricPrecision" shape-rendering="geometricPrecision" transform="matrix(1,0,0,1,-91,-75)" stroke="rgb(245,245,245)">
      <rect x="106.5" y="207.2422" clip-path="url(#clipPath2)" width="491.5" rx="4" ry="4" height="300.2578" stroke="none"/>
      <rect x="106.5" y="207.2422" clip-path="url(#clipPath2)" fill="rgb(235,235,235)" width="491.5" height="20.7578" stroke="none"/>
    </g>
    <g font-size="15px" stroke-linecap="butt" transform="matrix(1,0,0,1,-91,-75)" text-rendering="geometricPrecision" font-family="'Liberation Sans'" shape-rendering="geometricPrecision" stroke-miterlimit="1.45">
      <text x="497.6284" xml:space="preserve" y="223.0667" clip-path="url(#clipPath2)" stroke="none">Monastery API</text>
      <rect x="106.5" y="207.2422" clip-path="url(#clipPath2)" fill="none" width="491.5" stroke-dasharray="6,2" rx="4" ry="4" height="300.2578"/>
    </g>
    <g fill="url(#linearGradient1)" text-rendering="geometricPrecision" shape-rendering="geometricPrecision" transform="matrix(1,0,0,1,-91,-75)" stroke="url(#linearGradient1)">
      <rect x="357" y="243" clip-path="url(#clipPath3)" width="80" rx="4" ry="4" height="90" stroke="none"/>
      <rect x="357" y="243" clip-path="url(#clipPath4)" fill="white" width="80" rx="4" ry="4" height="90" stroke="none"/>
    </g>
    <g text-rendering="geometricPrecision" stroke-miterlimit="1.45" shape-rendering="geometricPrecision" transform="matrix(1,0,0,1,-91,-75)" stroke-linecap="butt">
      <rect x="357" y="243" clip-path="url(#clipPath2)" fill="none" width="80" rx="4" ry="4" height="90"/>
      <line y2="268.4062" fill="none" x1="357" clip-path="url(#clipPath2)" x2="437" y1="268.4062"/>
      <text x="382.6562" xml:space="preserve" y="260.0596" clip-path="url(#clipPath2)" font-family="'Liberation Sans'" stroke="none">Node</text>
      <text x="361" xml:space="preserve" y="285.4658" clip-path="url(#clipPath2)" font-family="'Liberation Sans'" stroke="none">ID</text>
      <text x="361" xml:space="preserve" y="298.8721" clip-path="url(#clipPath2)" font-family="'Liberation Sans'" stroke="none">Capabilities</text>
      <text x="361" xml:space="preserve" y="312.2783" clip-path="url(#clipPath2)" font-family="'Liberation Sans'" stroke="none">State</text>
    </g>
    <g fill="url(#linearGradient2)" text-rendering="geometricPrecision" shape-rendering="geometricPrecision" transform="matrix(1,0,0,1,-91,-75)" stroke="url(#linearGradient2)">
      <rect x="150.5" y="243" clip-path="url(#clipPath3)" width="133" rx="4" ry="4" height="90" stroke="none"/>
      <rect x="150.5" y="243" clip-path="url(#clipPath4)" fill="white" width="133" rx="4" ry="4" height="90" stroke="none"/>
    </g>
    <g text-rendering="geometricPrecision" stroke-miterlimit="1.45" shape-rendering="geometricPrecision" transform="matrix(1,0,0,1,-91,-75)" stroke-linecap="butt">
      <rect x="150.5" y="243" clip-path="url(#clipPath2)" fill="none" width="133" rx="4" ry="4" height="90"/>
      <line y2="268.4062" fill="none" x1="150.5" clip-path="url(#clipPath2)" x2="283.5" y1="268.4062"/>
      <text x="180.3145" xml:space="preserve" y="260.0596" clip-path="url(#clipPath2)" font-family="'Liberation Sans'" stroke="none">NodeProvider</text>
      <text x="154.5" xml:space="preserve" y="285.4658" clip-path="url(#clipPath2)" font-family="'Liberation Sans'" stroke="none">connect()</text>
    </g>
    <g fill="url(#linearGradient3)" text-rendering="geometricPrecision" shape-rendering="geometricPrecision" transform="matrix(1,0,0,1,-91,-75)" stroke="url(#linearGradient3)">
      <rect x="150.5" y="363" clip-path="url(#clipPath5)" width="133" rx="4" ry="4" height="90" stroke="none"/>
      <rect x="150.5" y="363" clip-path="url(#clipPath6)" fill="white" width="133" rx="4" ry="4" height="90" stroke="none"/>
    </g>
    <g text-rendering="geometricPrecision" stroke-miterlimit="1.45" shape-rendering="geometricPrecision" transform="matrix(1,0,0,1,-91,-75)" stroke-linecap="butt">
      <rect x="150.5" y="363" clip-path="url(#clipPath2)" fill="none" width="133" rx="4" ry="4" height="90"/>
      <line y2="388.4062" fill="none" x1="150.5" clip-path="url(#clipPath2)" x2="283.5" y1="388.4062"/>
      <text x="161.6377" xml:space="preserve" y="380.0596" clip-path="url(#clipPath2)" font-family="'Liberation Sans'" stroke="none">NodeProviderBuilder</text>
      <text x="154.5" xml:space="preserve" y="405.4658" clip-path="url(#clipPath2)" font-family="'Liberation Sans'" stroke="none">build()</text>
    </g>
    <g fill="url(#linearGradient4)" text-rendering="geometricPrecision" shape-rendering="geometricPrecision" transform="matrix(1,0,0,1,-91,-75)" stroke="url(#linearGradient4)">
      <rect x="503" y="243" clip-path="url(#clipPath3)" width="80" rx="4" ry="4" height="90" stroke="none"/>
      <rect x="503" y="243" clip-path="url(#clipPath4)" fill="white" width="80" rx="4" ry="4" height="90" stroke="none"/>
    </g>
    <g text-rendering="geometricPrecision" stroke-miterlimit="1.45" shape-rendering="geometricPrecision" transform="matrix(1,0,0,1,-91,-75)" stroke-linecap="butt">
      <rect x="503" y="243" clip-path="url(#clipPath2)" fill="none" width="80" rx="4" ry="4" height="90"/>
      <line y2="268.4062" fill="none" x1="503" clip-path="url(#clipPath2)" x2="583" y1="268.4062"/>
      <text x="516.6533" xml:space="preserve" y="260.0596" clip-path="url(#clipPath2)" font-family="'Liberation Sans'" stroke="none">Capability</text>
    </g>
    <g fill="rgb(255,255,204)" text-rendering="geometricPrecision" shape-rendering="geometricPrecision" transform="matrix(1,0,0,1,-91,-75)" stroke="rgb(255,255,204)">
      <path d="M201 429.25 L286 429.25 L286 444.25 L301 444.25 L301 467.25 L201 467.25 Z" stroke="none" clip-path="url(#clipPath2)"/>
      <path fill="white" d="M286 429.25 L286 444.25 L301 444.25 Z" clip-path="url(#clipPath2)" fill-rule="evenodd" stroke="none"/>
    </g>
    <g text-rendering="geometricPrecision" stroke-miterlimit="1.45" shape-rendering="geometricPrecision" transform="matrix(1,0,0,1,-91,-75)" stroke-linecap="butt">
      <path fill="none" d="M201 429.25 L286 429.25 L286 444.25 L301 444.25 L301 467.25 L201 467.25 Z" clip-path="url(#clipPath2)"/>
      <path fill="none" d="M286 429.25 L286 444.25 L301 444.25 Z" clip-path="url(#clipPath2)" fill-rule="evenodd"/>
      <text x="217.9824" xml:space="preserve" y="445.9033" clip-path="url(#clipPath2)" font-family="'Liberation Sans'" stroke="none">normal point</text>
      <text x="230.9902" xml:space="preserve" y="459.3096" clip-path="url(#clipPath2)" font-family="'Liberation Sans'" stroke="none">of entry</text>
    </g>
    <g fill="rgb(255,255,204)" text-rendering="geometricPrecision" shape-rendering="geometricPrecision" transform="matrix(1,0,0,1,-91,-75)" stroke="rgb(255,255,204)">
      <path d="M403.5 323 L521.5 323 L521.5 338 L536.5 338 L536.5 361 L403.5 361 Z" stroke="none" clip-path="url(#clipPath2)"/>
      <path fill="white" d="M521.5 323 L521.5 338 L536.5 338 Z" clip-path="url(#clipPath2)" fill-rule="evenodd" stroke="none"/>
    </g>
    <g text-rendering="geometricPrecision" stroke-miterlimit="1.45" shape-rendering="geometricPrecision" transform="matrix(1,0,0,1,-91,-75)" stroke-linecap="butt">
      <path fill="none" d="M403.5 323 L521.5 323 L521.5 338 L536.5 338 L536.5 361 L403.5 361 Z" clip-path="url(#clipPath2)"/>
      <path fill="none" d="M521.5 323 L521.5 338 L536.5 338 Z" clip-path="url(#clipPath2)" fill-rule="evenodd"/>
      <text x="425.6504" xml:space="preserve" y="339.6533" clip-path="url(#clipPath2)" font-family="'Liberation Sans'" stroke="none">primary points of</text>
      <text x="442.3174" xml:space="preserve" y="353.0596" clip-path="url(#clipPath2)" font-family="'Liberation Sans'" stroke="none">interaction</text>
      <path fill="none" stroke-dasharray="6,2" d="M262.5493 169.9822 L353.2288 249.5786" clip-path="url(#clipPath2)"/>
      <path stroke-dasharray="6,2" d="M356.2349 252.2173 L351.1745 239.7918 L356.2349 252.2173 L343.2583 248.8103 Z" clip-path="url(#clipPath2)" stroke="none"/>
      <path fill="none" stroke-miterlimit="10" d="M356.2349 252.2173 L351.1745 239.7918 L356.2349 252.2173 L343.2583 248.8103 Z" clip-path="url(#clipPath2)" stroke-linecap="square"/>
      <text x="296.3341" xml:space="preserve" y="196.6145" clip-path="url(#clipPath2)" font-family="sans-serif" stroke="none">uses</text>
      <path fill="none" stroke-dasharray="6,2" d="M283.4893 288 L352.0107 288" clip-path="url(#clipPath2)"/>
      <path stroke-dasharray="6,2" d="M356.0107 288 L344.0107 282 L356.0107 288 L344.0107 294 Z" clip-path="url(#clipPath2)" stroke="none"/>
      <path fill="none" stroke-miterlimit="10" d="M356.0107 288 L344.0107 282 L356.0107 288 L344.0107 294 Z" clip-path="url(#clipPath2)" stroke-linecap="square"/>
      <text x="284.2711" xml:space="preserve" y="310.6705" clip-path="url(#clipPath2)" font-family="sans-serif" stroke="none">creates future</text>
      <path fill="none" stroke-dasharray="6,2" d="M217 362.9707 L217 337.9897" clip-path="url(#clipPath2)"/>
      <path stroke-dasharray="6,2" d="M217 333.9897 L211 345.9897 L217 333.9897 L223 345.9897 Z" clip-path="url(#clipPath2)" stroke="none"/>
      <path fill="none" stroke-miterlimit="10" d="M217 333.9897 L211 345.9897 L217 333.9897 L223 345.9897 Z" clip-path="url(#clipPath2)" stroke-linecap="square"/>
      <text x="231.3232" xml:space="preserve" y="352.7139" clip-path="url(#clipPath2)" font-family="sans-serif" stroke="none">builds</text>
      <path fill="none" d="M444.0288 288 L502.9762 288" clip-path="url(#clipPath2)"/>
      <path fill="white" d="M437.0288 288 L444.0288 283 L451.0288 288 L444.0288 293 Z" clip-path="url(#clipPath2)" stroke="none"/>
      <path fill="none" d="M437.0288 288 L444.0288 283 L451.0288 288 L444.0288 293 Z" clip-path="url(#clipPath2)"/>
      <text x="444.7221" xml:space="preserve" y="270.0518" clip-path="url(#clipPath2)" font-family="sans-serif" stroke="none">has many</text>
    </g>
  </g>
</svg>
